<svg width="60" height="60" viewBox="0 0 60 60" fill="none" xmlns="http://www.w3.org/2000/svg">
<path d="M50.7949 9.95508L30.8848 3.16992C30.6445 3.08789 30.3223 3.04688 30 3.04688C29.6777 3.04688 29.3555 3.08789 29.1152 3.16992L9.20508 9.95508C8.71875 10.1191 8.32031 10.6816 8.32031 11.1973V39.4629C8.32031 39.9785 8.6543 40.6582 9.05859 40.9805L29.2559 56.7188C29.4609 56.877 29.7246 56.959 29.9941 56.959C30.2637 56.959 30.5332 56.877 30.7324 56.7188L50.9297 40.9805C51.334 40.6641 51.668 39.9844 51.668 39.4629V11.1973C51.6797 10.6816 51.2812 10.125 50.7949 9.95508ZM47.4609 38.3379L30 51.9434L12.5391 38.3379V13.2832L30 7.33008L47.4609 13.2832V38.3379ZM23.6836 26.5605C23.5078 26.3203 23.2266 26.1738 22.9219 26.1738H19.6875C19.3066 26.1738 19.084 26.6074 19.3066 26.918L26.7129 37.1133C26.8005 37.2331 26.9151 37.3307 27.0474 37.3979C27.1798 37.4651 27.3262 37.5001 27.4746 37.5001C27.6231 37.5001 27.7694 37.4651 27.9018 37.3979C28.0341 37.3307 28.1488 37.2331 28.2363 37.1133L40.6934 19.9629C40.916 19.6523 40.6934 19.2188 40.3125 19.2188H37.0781C36.7793 19.2188 36.4922 19.3652 36.3164 19.6055L27.4746 31.7813L23.6836 26.5605Z" fill="#FF4800"/>
</svg>
