<svg width="116" height="57" viewBox="0 0 116 57" fill="none" xmlns="http://www.w3.org/2000/svg">
<path d="M28.0434 56.0867C43.5313 56.0867 56.0867 43.5313 56.0867 28.0434C56.0867 12.5555 43.5313 0 28.0434 0C12.5554 0 0 12.5555 0 28.0434C0 43.5313 12.5554 56.0867 28.0434 56.0867Z" fill="url(#paint0_radial_1_6)"/>
<mask id="mask0_1_6" style="mask-type:alpha" maskUnits="userSpaceOnUse" x="0" y="0" width="57" height="57">
<path d="M28.0434 56.0867C43.5313 56.0867 56.0867 43.5313 56.0867 28.0434C56.0867 12.5555 43.5313 0 28.0434 0C12.5554 0 0 12.5555 0 28.0434C0 43.5313 12.5554 56.0867 28.0434 56.0867Z" fill="url(#paint1_radial_1_6)"/>
</mask>
<g mask="url(#mask0_1_6)">
<path d="M3.05066 -2.82395V-1.31278L6.49802 1.83025C17.1182 11.527 28.4363 21.8376 28.6567 22.0265C28.9085 22.2416 28.6986 22.0107 21.2844 13.8724C19.9044 12.356 17.134 9.31266 15.1243 7.10887C13.1147 4.89983 10.4806 2.00866 9.26851 0.675886C8.05642 -0.651638 6.53475 -2.32547 5.88936 -3.03908L4.714 -4.33512H3.87971H3.05066V-2.82395Z" fill="url(#paint2_linear_1_6)"/>
<path d="M11.9708 -4.2986C11.9708 -4.28286 12.2961 -3.75814 12.7001 -3.13374C13.0989 -2.50933 14.6153 -0.148117 16.0635 2.11864C17.517 4.3854 19.2643 7.10867 19.9464 8.17908C20.6285 9.24425 22.2499 11.7734 23.5407 13.7935C28.1844 21.045 28.7196 21.8741 28.7721 21.9266C28.8298 21.979 28.2684 20.8719 27.0563 18.5422C26.7047 17.8653 26.1747 16.8368 25.8757 16.2597C25.3405 15.2207 23.7558 12.1459 22.2551 9.25474C21.8301 8.43094 21.2267 7.26083 20.9171 6.65741C20.6075 6.04875 20.0723 5.02555 19.7365 4.37491C19.4007 3.72427 18.8235 2.61712 18.4615 1.90876C18.0994 1.2004 17.4225 -0.111387 16.9555 -1.0034C16.4938 -1.90066 15.9166 -3.01305 15.6805 -3.48005L15.2502 -4.33533H13.6131C12.7106 -4.33533 11.9708 -4.31959 11.9708 -4.2986Z" fill="url(#paint3_linear_1_6)"/>
<path d="M20.5761 -4.2931C20.5761 -4.27211 20.8699 -3.33288 21.2267 -2.20999C23.2679 4.22299 24.2858 7.43948 24.5377 8.20556C24.6951 8.68305 25.1883 10.2415 25.6396 11.6687C26.0908 13.0959 26.8254 15.3994 27.2662 16.7846C27.7069 18.1699 28.2579 19.8857 28.4783 20.5993C28.7039 21.3129 28.898 21.8901 28.9033 21.8796C28.9243 21.8586 28.4888 19.8385 27.7384 16.4173C27.4918 15.2892 26.7729 11.9992 26.138 9.09758C25.5084 6.19591 24.8735 3.29425 24.7266 2.64361C24.5849 1.99296 24.1914 0.198442 23.8555 -1.34422C23.525 -2.88687 23.2364 -4.19341 23.2206 -4.24588C23.1944 -4.32983 23.0842 -4.33508 21.8826 -4.33508C21.1638 -4.33508 20.5761 -4.31934 20.5761 -4.2931Z" fill="url(#paint4_linear_1_6)"/>
<path d="M27.8171 -4.31957C27.8171 -4.21988 28.6619 14.1871 28.6829 14.5544C28.6987 14.8272 28.7826 16.5745 28.8666 18.432C28.9558 20.2895 29.0345 21.8216 29.0502 21.8374C29.066 21.8531 29.0765 21.7954 29.0765 21.7114C29.0765 21.575 29.2968 16.8264 29.7586 6.91978C29.8425 5.07279 29.9265 3.33599 29.9422 3.06314C29.9685 2.60139 30.2833 -4.17265 30.2833 -4.28809C30.2833 -4.31432 29.7901 -4.33531 29.0502 -4.33531C28.3733 -4.33531 27.8171 -4.33006 27.8171 -4.31957Z" fill="url(#paint5_linear_1_6)"/>
<path d="M34.8745 -4.27201C34.8536 -4.19331 34.4495 -2.34107 33.164 3.56195C32.676 5.81297 32.0726 8.55197 31.8312 9.64862C31.5898 10.7453 31.0599 13.1642 30.6559 15.0269C30.2518 16.8897 29.7533 19.1669 29.554 20.0852C29.1971 21.6908 29.1289 22.0948 29.3021 21.5491C29.874 19.7756 30.7136 17.1205 31.2278 15.4992C31.5793 14.3868 32.0044 13.054 32.1723 12.5345C32.3402 12.0151 32.8439 10.4304 33.2899 9.01897C34.1242 6.39015 35.3468 2.53876 36.7425 -1.82685C37.1728 -3.17012 37.5243 -4.28776 37.5243 -4.3035C37.5243 -4.31924 36.9314 -4.33498 36.2126 -4.33498C35.2051 -4.33498 34.8903 -4.31924 34.8745 -4.27201Z" fill="url(#paint6_linear_1_6)"/>
<path d="M41.6171 -1.96359C40.9455 -0.657057 39.9171 1.33161 39.3346 2.45974C38.7522 3.58262 37.6661 5.68672 36.921 7.12969C36.1759 8.57265 35.0687 10.7187 34.4548 11.9046C33.8409 13.0852 33.0853 14.5491 32.7757 15.1578C32.4662 15.7612 32.1251 16.4224 32.0149 16.627C31.8312 16.9733 31.5584 17.498 30.2833 19.9852C29.9895 20.5623 29.6379 21.234 29.5068 21.4806C29.1972 22.0683 29.3284 21.9266 29.8478 21.1133C31.7053 18.2116 35.7823 11.8416 37.3407 9.41219C41.2551 3.30453 46.0247 -4.1464 46.0982 -4.27233C46.1297 -4.31955 45.7939 -4.3353 44.4873 -4.3353H42.845L41.6171 -1.96359Z" fill="url(#paint7_linear_1_6)"/>
<path d="M52.2426 -3.11803C51.6392 -2.4464 49.7817 -0.410513 48.1236 1.41024C46.4655 3.231 43.9364 6.00673 42.5092 7.57562C39.7754 10.5822 34.7119 16.1389 33.9826 16.9418C33.4264 17.5557 29.7429 21.6117 29.5278 21.8478C29.2287 22.1784 29.554 21.8898 31.7001 19.9326C42.9552 9.66398 54.3572 -0.720093 54.8189 -1.13461L55.1442 -1.42321L55.1495 -2.88191L55.1547 -4.33537H54.2522H53.3445L52.2426 -3.11803Z" fill="url(#paint8_linear_1_6)"/>
<path d="M52.9246 7.03006C50.6789 8.47827 49.2569 9.39127 43.0338 13.3843C40.9717 14.7066 37.094 17.1938 34.418 18.9096C31.742 20.6254 29.5644 22.0369 29.5697 22.0474C29.5906 22.0631 31.7892 20.9402 34.2186 19.6704C34.8955 19.3188 35.9974 18.7522 36.6585 18.4111C37.3249 18.07 38.0805 17.6817 38.3376 17.5453C38.6 17.4036 40.8772 16.2283 43.4011 14.9217C45.925 13.6152 48.2757 12.4031 48.622 12.2195C48.9683 12.0411 49.7029 11.6633 50.2486 11.3799C51.6181 10.6768 53.9636 9.45949 54.6195 9.11317L55.1547 8.82983V7.22945C55.1547 6.35318 55.1389 5.63433 55.1179 5.63957C55.0917 5.63957 54.1105 6.26923 52.9246 7.03006Z" fill="url(#paint9_linear_1_6)"/>
<path d="M3.06115 7.34511L3.07689 8.96647L3.8902 9.38624C4.33621 9.61712 5.8946 10.4252 7.35331 11.1755C8.81201 11.9311 11.997 13.5787 14.4369 14.8433C16.8768 16.1026 19.1803 17.2937 19.5529 17.4931C19.9307 17.6872 20.9696 18.2277 21.8616 18.6894C22.7589 19.1512 24.0812 19.8333 24.8 20.2058C27.3449 21.5281 28.6042 22.1683 28.6042 22.142C28.6042 22.1315 28.1162 21.8062 27.518 21.4232C26.9146 21.0401 25.776 20.3108 24.9837 19.8018C24.1913 19.2928 22.4441 18.1699 21.1008 17.3094C18.0417 15.347 16.0688 14.0824 11.656 11.249C9.7355 10.0159 7.06996 8.30533 5.7267 7.4448C4.38343 6.58427 3.23431 5.84443 3.1661 5.80245L3.05066 5.72899L3.06115 7.34511Z" fill="url(#paint10_linear_1_6)"/>
<path d="M54.3938 14.2657C54.0213 14.3864 52.211 14.9635 50.3798 15.546C48.5485 16.1284 46.4339 16.8053 45.6836 17.0467C44.9333 17.288 43.0233 17.8967 41.4334 18.4004C39.8488 18.9041 37.6975 19.5915 36.6585 19.9221C35.6196 20.2579 33.6362 20.8876 32.251 21.3231C30.0472 22.0262 29.2339 22.299 29.7061 22.1941C29.7796 22.1784 31.6318 21.7691 33.8251 21.2916C36.0184 20.8141 39.408 20.0743 41.3547 19.644C43.3014 19.2137 45.9932 18.626 47.3365 18.3375C48.6797 18.0436 50.9832 17.5399 52.4524 17.2146L55.1284 16.6216L55.1442 15.3256C55.1494 14.612 55.1389 14.0296 55.1179 14.0348C55.0917 14.0401 54.7716 14.1397 54.3938 14.2657Z" fill="url(#paint11_linear_1_6)"/>
<path d="M3.06115 15.4256L3.07689 16.7217L4.46738 17.026C5.23347 17.1992 7.69962 17.7396 9.95064 18.2276C12.2017 18.7208 15.1191 19.361 16.4308 19.6496C17.7426 19.9382 20.8594 20.6203 23.3571 21.166C25.8547 21.7117 28.048 22.1892 28.2264 22.2312C28.8718 22.3781 28.4573 22.2259 26.8202 21.7012C24.7213 21.0296 20.34 19.6391 16.562 18.4375C14.9459 17.9233 12.9992 17.3041 12.2331 17.0575C11.4671 16.8109 9.60957 16.2179 8.0984 15.7405C6.59247 15.2577 4.8924 14.7173 4.32046 14.5336C3.75377 14.35 3.23431 14.1873 3.1661 14.1663L3.05066 14.1296L3.06115 15.4256Z" fill="url(#paint12_linear_1_6)"/>
<path d="M54.6773 21.1343C54.6668 21.1448 54.3047 21.1658 53.8692 21.1868C52.4053 21.2498 40.7251 21.7955 37.3932 21.9529C35.5777 22.0369 33.0958 22.1575 31.889 22.2153C30.6769 22.273 29.6799 22.3254 29.6694 22.3359C29.6589 22.3464 30.0262 22.3727 30.4775 22.3937C30.934 22.4146 31.4745 22.4409 31.6738 22.4566C31.8785 22.4671 33.8724 22.5616 36.1077 22.6613C42.9342 22.9708 43.9311 23.0181 45.1852 23.0863C46.0982 23.1335 54.8084 23.527 54.9868 23.527H55.1548V22.3202V21.1134H54.9291C54.8032 21.1134 54.6878 21.1239 54.6773 21.1343Z" fill="url(#paint13_linear_1_6)"/>
<path d="M3.05066 22.4304V23.6425L3.59111 23.611C3.88495 23.59 6.19369 23.4851 8.71756 23.3696C11.2414 23.2594 13.5449 23.1545 13.8335 23.1388C14.1221 23.123 14.6783 23.0968 15.0666 23.081C15.4549 23.0653 15.8799 23.0391 16.0111 23.0286C16.1423 23.0233 19.0177 22.8869 22.4073 22.7347C25.797 22.5773 28.4992 22.4356 28.4153 22.4147C28.3313 22.3937 27.093 22.3307 25.6658 22.2677C24.2386 22.21 22.6539 22.1366 22.1502 22.1051C21.6465 22.0788 19.9569 21.9949 18.3985 21.9267C16.8401 21.8532 12.7683 21.6643 9.34722 21.5069C5.92609 21.3495 3.11362 21.2183 3.09264 21.2183C3.0664 21.2183 3.05066 21.764 3.05066 22.4304Z" fill="url(#paint14_linear_1_6)"/>
<path d="M31.805 23.1913C33.0328 23.5796 35.1684 24.2617 36.5536 24.7077C37.9389 25.1485 39.7596 25.7309 40.5939 25.9933C41.4335 26.2556 43.0233 26.7646 44.1357 27.1214C45.2481 27.4782 47.3155 28.1393 48.727 28.5854C50.1437 29.0366 52.1481 29.6715 53.187 30.0073C54.226 30.3379 55.0917 30.6107 55.118 30.6107C55.139 30.6107 55.1547 30.0336 55.1547 29.3252V28.0397L55.0393 28.0134C54.9711 27.9977 54.0476 27.7983 52.9771 27.5674C51.912 27.3313 50.5162 27.027 49.8813 26.8853C49.2464 26.7436 46.817 26.2137 44.4768 25.7047C42.1418 25.1957 39.4973 24.6185 38.6 24.4191C35.2314 23.6688 29.7219 22.4777 29.6484 22.4777C29.6064 22.4829 30.5771 22.803 31.805 23.1913Z" fill="url(#paint15_linear_1_6)"/>
<path d="M25.8232 23.1388C24.4537 23.4379 21.8301 24.0151 19.9989 24.4191C18.1676 24.8231 14.8252 25.5525 12.5742 26.0457C10.3232 26.5337 7.2641 27.2053 5.77917 27.5306L3.07689 28.1236L3.06115 29.4248L3.05066 30.7209L3.1661 30.6842C3.23431 30.6632 4.56183 30.2434 6.12023 29.7449C7.67863 29.2464 9.64105 28.622 10.4753 28.3544C11.3149 28.0921 13.1671 27.4991 14.5943 27.0426C17.3019 26.1769 20.0094 25.3111 25.3247 23.6215C27.0563 23.0758 28.4835 22.6141 28.494 22.6036C28.557 22.5459 28.1214 22.6351 25.8232 23.1388Z" fill="url(#paint16_linear_1_6)"/>
<path d="M29.575 22.6191C29.6065 22.6506 30.976 23.5373 32.6183 24.5867C34.2659 25.6414 37.5349 27.735 39.8856 29.2462C52.8565 37.5681 55.097 39.0059 55.1285 39.0059C55.1443 39.0059 55.1548 38.287 55.1548 37.4107V35.8156L53.3602 34.8816C52.3685 34.3726 50.8311 33.5751 49.9339 33.1133C49.0419 32.6568 47.7301 31.9747 47.0217 31.6074C46.3134 31.2401 45.2639 30.6944 44.6867 30.4006C44.1096 30.1015 43.1074 29.582 42.4567 29.2462C41.8061 28.9104 40.8511 28.4119 40.3316 28.1443C39.8122 27.8767 39.0566 27.4884 38.6525 27.2785C32.3875 24.0253 29.5015 22.5456 29.575 22.6191Z" fill="url(#paint17_linear_1_6)"/>
<path d="M27.8958 23.0446C26.8254 23.606 24.2123 24.9598 22.4913 25.8518C21.6255 26.2978 18.5559 27.8824 15.67 29.3779C12.7841 30.8681 9.62007 32.5052 8.63885 33.0141C4.91864 34.9346 3.74853 35.538 3.40746 35.7217L3.05066 35.9105V37.5162V39.1165L3.16085 39.0536C3.22381 39.0221 3.46518 38.8699 3.7013 38.7178C3.93218 38.5656 6.01529 37.2328 8.32402 35.7531C13.9647 32.1326 15.6753 31.0412 18.0575 29.5091C19.1698 28.7954 21.0483 27.5886 22.2289 26.833C24.9994 25.0542 27.7909 23.265 28.2894 22.9449C28.5045 22.8032 28.6619 22.6878 28.6304 22.6878C28.6042 22.6878 28.2736 22.8504 27.8958 23.0446Z" fill="url(#paint18_linear_1_6)"/>
<path d="M29.9527 23.249C30.2361 23.5638 31.6475 25.1117 33.0905 26.7016C37.2252 31.2456 40.2843 34.6038 44.5555 39.2947C46.733 41.6874 49.6242 44.8619 50.978 46.3521C52.3317 47.837 53.4703 49.0701 53.5071 49.0964C53.5438 49.1173 53.9268 49.1278 54.3519 49.1226L55.1284 49.1069L55.1389 47.5852L55.1494 46.0635L53.4126 44.4894C52.4577 43.6236 50.5634 41.8973 49.2044 40.659C47.8402 39.4154 45.0172 36.8443 42.9289 34.9396C40.8405 33.0349 37.4981 29.9863 35.5094 28.1708C29.6431 22.8187 29.4962 22.6876 29.4647 22.6876C29.449 22.6876 29.6694 22.9394 29.9527 23.249Z" fill="url(#paint19_linear_1_6)"/>
<path d="M28.1425 23.3057C27.2295 24.14 22.9793 28.0176 18.8971 31.7378C16.8087 33.6425 13.9857 36.2136 12.6215 37.4572C11.2625 38.6955 8.55496 41.1669 6.60303 42.9404L3.05597 46.1674V47.6471L3.05072 49.132H3.906C4.373 49.132 4.78227 49.1111 4.81376 49.0901C4.84524 49.0691 6.07307 47.7311 7.54226 46.1149C9.01146 44.4988 11.5248 41.7336 13.1305 39.9758C17.3177 35.3741 20.403 31.9844 24.6374 27.325C26.6838 25.0792 28.4521 23.1378 28.5728 23.0118C28.9401 22.6235 28.7249 22.7757 28.1425 23.3057Z" fill="url(#paint20_linear_1_6)"/>
<path d="M28.2999 23.6949C27.9851 24.1934 27.1875 25.4422 26.5316 26.4654C25.8757 27.4886 24.2019 30.0964 22.8167 32.2635C21.4314 34.4253 19.5267 37.4004 18.5822 38.8749C17.6377 40.3441 15.7907 43.2352 14.4737 45.2921C13.1514 47.349 12.0758 49.0543 12.0758 49.0805C12.0758 49.1435 15.2188 49.154 15.308 49.091C15.3395 49.07 15.6438 48.5086 15.9849 47.8475C16.326 47.1811 16.9031 46.0634 17.2704 45.3551C17.6377 44.6467 18.3513 43.2667 18.8603 42.2855C19.6369 40.7743 21.7777 36.6291 23.3833 33.5228C23.6195 33.061 24.3646 31.6181 25.0362 30.322C25.7078 29.0208 26.6156 27.263 27.0563 26.4129C27.4971 25.5629 28.0953 24.398 28.3944 23.8261C28.6882 23.2594 28.9191 22.7924 28.9033 22.7924C28.8876 22.7924 28.62 23.2017 28.2999 23.6949Z" fill="url(#paint21_linear_1_6)"/>
<path d="M29.9055 23.842C30.1941 24.4034 30.7661 25.5158 31.1753 26.3081C31.5846 27.1004 32.3455 28.5749 32.8649 29.5876C33.3844 30.595 33.9458 31.6812 34.1137 32.0013C34.4181 32.5837 38.6735 40.8164 40.1847 43.7548C41.8847 47.0605 42.8397 48.9023 42.9132 49.0177L42.9814 49.1331H44.6132C45.9513 49.1331 46.2399 49.1227 46.2189 49.0649C46.2031 49.023 45.7834 48.3566 45.2849 47.58C44.7864 46.8034 43.611 44.9617 42.6666 43.4925C41.7221 42.018 40.0902 39.4679 39.0355 37.8256C32.8387 28.1499 31.7368 26.4288 30.6874 24.7865C30.0525 23.7895 29.4963 22.9395 29.4543 22.8975C29.4123 22.8555 29.6169 23.2805 29.9055 23.842Z" fill="url(#paint22_linear_1_6)"/>
<path d="M29.3074 23.1072C29.3389 23.2856 29.9738 26.1925 31.3066 32.2897C31.6686 33.9478 32.4714 37.6208 33.0906 40.449C33.7097 43.2772 34.3866 46.3835 34.6018 47.3489L34.99 49.1067L36.2651 49.1225C36.9682 49.1277 37.5611 49.1172 37.5874 49.091C37.6084 49.07 37.4352 48.4613 37.2043 47.7425C36.9735 47.0184 36.4173 45.2711 35.9713 43.8596C35.52 42.4429 34.8641 40.3807 34.5073 39.2684C34.1505 38.156 33.6573 36.5976 33.4054 35.8053C33.1535 35.0129 32.6708 33.486 32.3245 32.4104C31.9834 31.3399 31.464 29.7081 31.1754 28.7898C30.0105 25.1168 29.3231 22.976 29.2969 22.9498C29.2812 22.934 29.2864 23.0075 29.3074 23.1072Z" fill="url(#paint23_linear_1_6)"/>
<path d="M28.3733 24.7968C28.0585 25.7885 27.5023 27.541 27.135 28.6954C26.7625 29.8498 26.1643 31.7387 25.797 32.8931C25.4297 34.0475 24.842 35.8997 24.4852 37.0121C24.1284 38.1245 23.6352 39.6829 23.3833 40.4752C23.1315 41.2675 22.6435 42.8049 22.2972 43.8858C21.5206 46.3153 20.6968 48.9231 20.6706 49.028C20.6548 49.0962 20.828 49.1067 21.9351 49.1225C22.6435 49.1277 23.2364 49.1172 23.2626 49.091C23.2836 49.07 23.4935 48.178 23.7244 47.1076C23.9605 46.0424 24.3855 44.0957 24.6741 42.7839C24.9627 41.4722 25.5766 38.6702 26.0331 36.5661C26.4896 34.4567 27.0248 32.0273 27.2137 31.1615C27.8276 28.3806 28.9243 23.3486 28.9558 23.1702C28.9715 23.081 28.9768 23.0023 28.961 23.0023C28.9505 23.0023 28.6829 23.8103 28.3733 24.7968Z" fill="url(#paint24_linear_1_6)"/>
<path d="M28.877 27.9452C28.0637 45.5651 27.9221 48.6609 27.9221 48.8813V49.1331H29.1237C29.79 49.1331 30.341 49.1174 30.3515 49.0912C30.3725 49.0597 30.0471 41.593 29.9475 39.7933C29.9265 39.4889 29.8582 37.9673 29.7848 36.4089C29.7166 34.8505 29.6326 33.1137 29.6011 32.5522C29.5277 31.188 29.1814 23.5691 29.1814 23.312C29.1814 23.2018 29.1656 23.1074 29.1394 23.1074C29.1184 23.1074 29.003 25.2849 28.877 27.9452Z" fill="url(#paint25_linear_1_6)"/>
</g>
<mask id="mask1_1_6" style="mask-type:alpha" maskUnits="userSpaceOnUse" x="0" y="0" width="57" height="57">
<path d="M28.0434 56.0868C43.5313 56.0868 56.0867 43.5314 56.0867 28.0434C56.0867 12.5555 43.5313 6.10352e-05 28.0434 6.10352e-05C12.5554 6.10352e-05 0 12.5555 0 28.0434C0 43.5314 12.5554 56.0868 28.0434 56.0868Z" fill="url(#paint26_radial_1_6)"/>
</mask>
<g mask="url(#mask1_1_6)">
</g>
<mask id="mask2_1_6" style="mask-type:alpha" maskUnits="userSpaceOnUse" x="0" y="0" width="57" height="57">
<path d="M28.0434 56.0867C43.5313 56.0867 56.0867 43.5313 56.0867 28.0434C56.0867 12.5555 43.5313 0 28.0434 0C12.5554 0 0 12.5555 0 28.0434C0 43.5313 12.5554 56.0867 28.0434 56.0867Z" fill="url(#paint27_linear_1_6)"/>
</mask>
<g mask="url(#mask2_1_6)">
<path d="M6.02108 21.1139C3.77319 24.8604 -0.883144 32.6263 -1.5254 33.7181C-2.6761 37.2238 -4.97751 44.8612 -4.97751 47.366C-4.97751 50.497 12.9253 58.2041 14.4507 59.0069C15.976 59.8097 25.1281 60.5322 25.8506 60.5322C26.5732 60.5322 43.0309 55.3139 47.8478 53.9491C52.6647 52.5843 58.7661 45.5998 59.3281 44.235C59.8901 42.8703 62.0577 28.259 62.0577 26.9745C62.0577 25.9469 58.1506 18.4646 56.1971 14.852L44.9577 26.1717L31.5506 8.26886L12.9253 21.9167L6.02108 21.1139Z" fill="#3F454D"/>
</g>
<path d="M22.2591 13.2084C24.8867 13.2084 27.0168 11.0783 27.0168 8.45064C27.0168 5.82301 24.8867 3.6929 22.2591 3.6929C19.6315 3.6929 17.5013 5.82301 17.5013 8.45064C17.5013 11.0783 19.6315 13.2084 22.2591 13.2084Z" fill="url(#paint28_radial_1_6)"/>
<mask id="mask3_1_6" style="mask-type:alpha" maskUnits="userSpaceOnUse" x="0" y="0" width="57" height="57">
<path d="M28.0434 56.0867C43.5313 56.0867 56.0867 43.5313 56.0867 28.0434C56.0867 12.5555 43.5313 0 28.0434 0C12.5554 0 0 12.5555 0 28.0434C0 43.5313 12.5554 56.0867 28.0434 56.0867Z" fill="url(#paint29_linear_1_6)"/>
</mask>
<g mask="url(#mask3_1_6)">
<path d="M6.03541 30.4467L-4.65637 38.6958L3.01559 12.3889L11.8086 23.5176L29.6778 1.28452L44.9577 22.6475L52.2661 12.8986L70.4873 38.6958L55.4284 27.747L45.9413 37.1959L44.0746 21.8061H33.1413L29.6778 22.6475L26.3648 25.3472L21.3954 17.998L11.0788 26.1718L6.03541 30.4467Z" fill="#3F454D"/>
</g>
<mask id="mask4_1_6" style="mask-type:alpha" maskUnits="userSpaceOnUse" x="0" y="0" width="57" height="57">
<path d="M28.0434 56.0867C43.5313 56.0867 56.0867 43.5313 56.0867 28.0434C56.0867 12.5555 43.5313 0 28.0434 0C12.5554 0 0 12.5555 0 28.0434C0 43.5313 12.5554 56.0867 28.0434 56.0867Z" fill="white"/>
</mask>
<g mask="url(#mask4_1_6)">
<path fill-rule="evenodd" clip-rule="evenodd" d="M31.6686 28.8862L31.6684 28.8829C31.6568 28.6992 31.6407 28.5168 31.6208 28.3355C31.6206 28.324 31.6194 28.3127 31.6174 28.3018C30.9539 22.4056 25.9511 17.8229 19.8776 17.8229C13.3526 17.8229 8.06305 23.1124 8.06305 29.6374C8.06305 29.8248 8.06741 30.0112 8.07601 30.1966V56.1155C8.07601 58.0659 9.6721 59.6624 11.6229 59.6624C13.5738 59.6624 15.1699 58.0663 15.1699 56.1155V55.005C15.1777 55.0083 15.1855 55.0118 15.1935 55.0152V29.6556C15.1935 27.0693 17.3096 24.9533 19.8959 24.9533C22.4823 24.9533 24.5983 27.0693 24.5983 29.6556V40.4715V41.5877C24.5983 43.5378 26.1945 45.1346 28.1452 45.1346C30.096 45.1346 31.6921 43.5384 31.6921 41.5877V29.6374V29.6255V29.2926C31.6921 29.1552 31.6842 29.0195 31.6687 28.8861L31.6686 28.8862ZM31.6682 28.8818C31.6678 28.8782 31.6673 28.8746 31.6668 28.871C31.6673 28.8746 31.6678 28.8782 31.6682 28.8818ZM31.6543 28.7774L31.6544 28.7782L31.6543 28.7774ZM31.6547 28.7805L31.6546 28.7797L31.6545 28.779L31.6544 28.7782L31.6547 28.7805Z" fill="white"/>
<path fill-rule="evenodd" clip-rule="evenodd" d="M48.1821 28.8859L48.1819 28.8826C48.1703 28.6989 48.1542 28.5165 48.1344 28.3352C48.1341 28.3237 48.133 28.3125 48.1309 28.3016C47.4675 22.4054 42.4646 17.8226 36.3911 17.8226C29.8661 17.8226 24.5766 23.1122 24.5766 29.6371C24.5766 29.8245 24.5809 30.011 24.5895 30.1963V41.5874C24.5895 43.5375 26.1856 45.1343 28.1365 45.1343C30.0873 45.1343 31.6834 43.5382 31.6834 41.5874V40.4768C31.6912 40.4802 31.6991 40.4837 31.707 40.4871V29.6553C31.707 27.0691 33.8231 24.9531 36.4094 24.9531C38.9957 24.9531 41.1118 27.0691 41.1118 29.6553V54.999V56.1153C41.1118 58.0657 42.7079 59.6622 44.6587 59.6622C46.6095 59.6622 48.2056 58.066 48.2056 56.1153V29.6371V29.6253V29.2923C48.2056 29.1549 48.1976 29.0193 48.1821 28.8858V28.8859ZM48.1818 28.8816C48.1813 28.878 48.1808 28.8745 48.1803 28.8709C48.1809 28.8745 48.1813 28.878 48.1818 28.8816ZM48.1678 28.7773L48.1679 28.778L48.1678 28.7773ZM48.1683 28.7803L48.1681 28.7796L48.168 28.7788L48.1679 28.778L48.1683 28.7803Z" fill="white"/>
<path fill-rule="evenodd" clip-rule="evenodd" d="M31.6667 28.8849L31.6665 28.8816C31.6549 28.6979 31.6388 28.5155 31.619 28.3342C31.6188 28.3227 31.6176 28.3114 31.6155 28.3005C31.3031 25.5246 30.0287 23.0399 28.1336 21.1874C26.0167 23.2567 24.6743 26.1145 24.5819 29.2861C24.5914 29.4076 24.5964 29.5304 24.5964 29.6543V40.4701V41.5864C24.5964 43.5353 26.1905 45.1312 28.1398 45.1332C30.089 45.1312 31.6833 43.5358 31.6833 41.5864V40.4758L31.6904 40.4789V29.6361V29.6242V29.2913C31.6904 29.1539 31.6824 29.0182 31.6669 28.8848L31.6667 28.8849ZM31.6664 28.8805C31.6659 28.8769 31.6654 28.8733 31.665 28.8697C31.6654 28.8733 31.6659 28.8769 31.6664 28.8805ZM31.6524 28.7761L31.6525 28.7769L31.6524 28.7761ZM31.6529 28.7792L31.6528 28.7784L31.6527 28.7776L31.6525 28.7769L31.6529 28.7792Z" fill="white"/>
</g>
<path d="M34.3874 11.2307C36.2077 10.7998 37.9161 11.7432 38.7449 13.1205C38.7887 13.1931 38.8353 13.2708 38.8895 13.3573C38.9078 13.322 38.9278 13.2863 38.9493 13.2508C39.0211 13.1329 39.0965 13.0192 39.1755 12.9111C39.6641 12.2409 40.2978 11.7506 41.0391 11.5184C42.3674 11.1028 43.4817 11.5532 44.5013 12.2414C44.4043 12.4463 41.6098 10.4839 39.7515 13.2046C39.6816 13.3005 39.6149 13.4006 39.5516 13.5047C39.5144 13.566 39.4806 13.6359 39.4495 13.7008C39.3653 13.8759 39.293 14.0264 39.1231 14.105C38.8765 14.2193 38.6516 14.1658 38.4293 13.8315C38.3275 13.6663 38.2311 13.5143 38.1383 13.3731C37.8988 12.952 37.6346 12.6097 37.3573 12.3335C37.1258 12.0827 36.9185 11.9204 36.7138 11.8143C35.8696 11.2722 34.994 11.1943 34.3874 11.2311V11.2307Z" fill="white"/>
<path d="M31.3534 6.13854C32.4455 5.85138 33.4706 6.48022 33.9677 7.3986C33.9939 7.44699 34.022 7.4988 34.0545 7.5564C34.0656 7.5328 34.0774 7.50895 34.0904 7.48535C34.1334 7.40662 34.1787 7.33109 34.2261 7.25885C34.5194 6.81212 34.8995 6.48495 35.3443 6.33021C36.1412 6.05308 36.8098 6.35346 37.4216 6.81235C37.3635 6.94891 35.6868 5.64058 34.5718 7.45454C34.5298 7.51852 34.4897 7.58532 34.4518 7.6546C34.4294 7.69544 34.4092 7.74218 34.3907 7.78526C34.3401 7.9021 34.2967 8.00231 34.1947 8.05483C34.0468 8.13096 33.9117 8.09543 33.7783 7.87236C33.7173 7.76224 33.6593 7.66085 33.6037 7.56679C33.46 7.286 33.3016 7.05773 33.1352 6.87361C32.9963 6.70637 32.872 6.59813 32.7491 6.52743C32.2426 6.16603 31.7172 6.1141 31.3532 6.13865L31.3534 6.13854Z" fill="white"/>
<path d="M21.2393 11.2658C23.4237 10.6913 25.4736 11.9491 26.468 13.7856C26.5204 13.8825 26.5765 13.9861 26.6415 14.1014C26.6637 14.0542 26.6874 14.0066 26.7134 13.9592C26.7995 13.802 26.8901 13.6506 26.9848 13.5061C27.5713 12.6127 28.3316 11.9585 29.2214 11.6491C30.8152 11.0949 32.1523 11.6956 33.376 12.6131C33.2596 12.8863 29.9064 10.2698 27.6761 13.8976C27.5921 14.0255 27.5121 14.1591 27.4364 14.2977C27.3917 14.3794 27.3515 14.4727 27.3139 14.5591C27.2127 14.7929 27.126 14.9932 26.9222 15.0982C26.6264 15.2506 26.3562 15.1793 26.0896 14.7334C25.9673 14.5132 25.8514 14.3105 25.7403 14.1222C25.4529 13.5607 25.1359 13.1042 24.8031 12.736C24.5254 12.4016 24.2764 12.185 24.031 12.0437C23.0177 11.3209 21.9672 11.2169 21.2393 11.266V11.2658Z" fill="white"/>
<path d="M17.1937 5.16226C19.0139 4.73136 20.7223 5.67474 21.5511 7.05227C21.5948 7.12488 21.6416 7.2026 21.6958 7.28905C21.7143 7.25375 21.734 7.21795 21.7555 7.18239C21.8272 7.06438 21.9027 6.95097 21.9817 6.84256C22.4704 6.17238 23.1041 5.68186 23.8455 5.44957C25.1738 5.03389 26.288 5.48449 27.3076 6.17276C27.2107 6.3776 24.4164 4.41511 22.5579 7.13611C22.4878 7.23204 22.4212 7.33222 22.3581 7.43614C22.3209 7.49739 22.2871 7.56751 22.256 7.63225C22.1718 7.80753 22.0995 7.95786 21.9295 8.03658C21.683 8.15085 21.458 8.09758 21.2356 7.763C21.1338 7.59782 21.0371 7.44575 20.9447 7.30453C20.7051 6.88336 20.441 6.54103 20.1637 6.2647C19.9322 6.01382 19.7249 5.8514 19.5202 5.74536C18.6758 5.20318 17.8004 5.12533 17.1937 5.16213V5.16226Z" fill="#3F454D"/>
<path d="M12.1367 9.20788C13.7749 8.77698 15.3125 9.72037 16.0584 11.0979C16.0977 11.1705 16.1398 11.2482 16.1886 11.3347C16.2053 11.2994 16.223 11.2636 16.2424 11.228C16.3069 11.11 16.3748 10.9966 16.4459 10.8882C16.8857 10.218 17.4561 9.72748 18.1234 9.49519C19.3188 9.07951 20.3216 9.53012 21.2393 10.2184C21.152 10.4232 18.6371 8.46073 16.9645 11.1817C16.9015 11.2777 16.8415 11.3778 16.7846 11.4818C16.7512 11.543 16.7208 11.6131 16.6928 11.6779C16.617 11.8532 16.552 12.0035 16.399 12.0822C16.1771 12.1965 15.9746 12.1432 15.7745 11.8086C15.6828 11.6434 15.5958 11.4914 15.5126 11.3502C15.297 10.929 15.0593 10.5867 14.8097 10.3103C14.6014 10.0594 14.4148 9.89702 14.2306 9.79098C13.4706 9.2488 12.6827 9.17095 12.1367 9.20776V9.20788Z" fill="white"/>
<path d="M22.2507 2.09298C23.3428 1.80562 24.3679 2.43471 24.8651 3.35318C24.8914 3.40162 24.9193 3.45334 24.9519 3.51102C24.9629 3.48737 24.9748 3.46359 24.9877 3.43981C25.0308 3.36115 25.076 3.28551 25.1235 3.21329C25.4167 2.76646 25.7969 2.43927 26.2417 2.28446C27.0387 2.00735 27.7072 2.30773 28.319 2.76659C28.2609 2.90318 26.5843 1.59467 25.4692 3.40895C25.4272 3.47295 25.3871 3.5396 25.3492 3.60891C25.3269 3.64976 25.3066 3.69655 25.2879 3.73956C25.2374 3.85642 25.194 3.95672 25.0921 4.0092C24.9441 4.08534 24.8091 4.0498 24.6757 3.8267C24.6147 3.71654 24.5566 3.61523 24.5012 3.52101C24.3574 3.24023 24.1989 3.01195 24.0326 2.8278C23.8937 2.6606 23.7692 2.55221 23.6465 2.48151C23.1399 2.12004 22.6146 2.06806 22.2507 2.0926V2.09298Z" fill="white"/>
<path d="M66.9989 31.3436C66.9989 31.5047 66.9989 31.6497 66.9989 31.7786C67.0311 31.9075 67.0472 32.0525 67.0472 32.2136V33.0353C67.0794 33.5831 67.0955 34.147 67.0955 34.727C67.1278 35.307 67.1439 35.8547 67.1439 36.3703C67.1439 37.8847 67.0472 39.2864 66.8539 40.5753C66.6928 41.8642 66.3222 42.9758 65.7422 43.9103C65.1944 44.8447 64.405 45.5858 63.3739 46.1336C62.3428 46.6814 60.9733 46.9553 59.2655 46.9553C58.4922 46.9553 57.7028 46.8103 56.8972 46.5203C56.0916 46.2303 55.3666 45.7792 54.7222 45.167C54.0778 44.5547 53.5461 43.7814 53.1272 42.8469C52.7083 41.9125 52.4828 40.8008 52.4505 39.5119V39.2219C52.4505 37.4819 52.7728 36.0964 53.4172 35.0653C54.0616 34.0019 54.8511 33.1803 55.7855 32.6003C56.72 32.0203 57.735 31.6336 58.8305 31.4403C59.9261 31.2469 60.925 31.1503 61.8272 31.1503H62.5039C62.4072 29.6358 62.1011 28.5081 61.5855 27.767C61.07 26.9936 60.3933 26.6069 59.5555 26.6069C59.0078 26.6069 58.3955 26.897 57.7189 27.477C57.0744 28.057 56.4139 28.8464 55.7372 29.8453L52.4989 26.9453C53.4011 25.4953 54.4966 24.3675 55.7855 23.562C57.1066 22.7242 58.3472 22.3053 59.5072 22.3053C61.8272 22.3053 63.6316 23.0303 64.9205 24.4803C66.2416 25.9303 66.9344 28.2181 66.9989 31.3436ZM62.1655 35.4519C61.5855 35.4519 60.9894 35.5164 60.3772 35.6453C59.7972 35.742 59.2494 35.9353 58.7339 36.2253C58.2505 36.5153 57.8316 36.902 57.4772 37.3853C57.155 37.8686 56.9778 38.497 56.9455 39.2703V39.4153C57.01 40.5431 57.2839 41.3647 57.7672 41.8803C58.2828 42.3958 58.7822 42.6536 59.2655 42.6536C60.0066 42.6536 60.6028 42.4925 61.0539 42.1703C61.505 41.8158 61.8433 41.3808 62.0689 40.8653C62.2944 40.3175 62.4394 39.7053 62.5039 39.0286C62.5683 38.352 62.6005 37.6753 62.6005 36.9986V35.4519H62.1655Z" fill="#3F454D"/>
<path d="M69.3068 32.5036C69.3068 30.7314 69.5001 29.2008 69.8868 27.912C70.2734 26.6231 70.8212 25.5597 71.5301 24.7219C72.239 23.8842 73.0607 23.272 73.9951 22.8853C74.9618 22.4986 76.009 22.3053 77.1368 22.3053C78.6512 22.3053 79.8596 22.6114 80.7618 23.2236C81.664 23.8036 82.3407 24.5447 82.7918 25.447C83.2751 26.317 83.5812 27.2997 83.7101 28.3953C83.8712 29.4586 83.9518 30.4736 83.9518 31.4403V46.4236H79.4568V31.4403C79.4568 30.9247 79.4246 30.3931 79.3601 29.8453C79.3279 29.2653 79.2151 28.7336 79.0218 28.2503C78.8607 27.7669 78.619 27.3803 78.2968 27.0903C78.0068 26.7681 77.6201 26.6069 77.1368 26.6069C76.009 26.6069 75.1712 27.1547 74.6234 28.2503C74.1079 29.3458 73.8501 30.7797 73.8501 32.552V46.4236H69.3551L69.3068 32.5036Z" fill="#3F454D"/>
<path d="M100.558 31.3436C100.558 31.5047 100.558 31.6497 100.558 31.7786C100.591 31.9075 100.607 32.0525 100.607 32.2136V33.0353C100.639 33.5831 100.655 34.147 100.655 34.727C100.687 35.307 100.703 35.8547 100.703 36.3703C100.703 37.8847 100.607 39.2864 100.413 40.5753C100.252 41.8642 99.8818 42.9758 99.3018 43.9103C98.754 44.8447 97.9645 45.5858 96.9334 46.1336C95.9023 46.6814 94.5329 46.9553 92.8251 46.9553C92.0518 46.9553 91.2623 46.8103 90.4568 46.5203C89.6512 46.2303 88.9262 45.7792 88.2818 45.167C87.6373 44.5547 87.1057 43.7814 86.6868 42.8469C86.2679 41.9125 86.0423 40.8008 86.0101 39.5119V39.2219C86.0101 37.4819 86.3323 36.0964 86.9768 35.0653C87.6212 34.0019 88.4107 33.1803 89.3451 32.6003C90.2795 32.0203 91.2945 31.6336 92.3901 31.4403C93.4857 31.2469 94.4845 31.1503 95.3868 31.1503H96.0634C95.9668 29.6358 95.6607 28.5081 95.1451 27.767C94.6295 26.9936 93.9529 26.6069 93.1151 26.6069C92.5673 26.6069 91.9551 26.897 91.2784 27.477C90.634 28.057 89.9734 28.8464 89.2968 29.8453L86.0584 26.9453C86.9607 25.4953 88.0562 24.3675 89.3451 23.562C90.6662 22.7242 91.9068 22.3053 93.0668 22.3053C95.3868 22.3053 97.1912 23.0303 98.4801 24.4803C99.8012 25.9303 100.494 28.2181 100.558 31.3436ZM95.7251 35.4519C95.1451 35.4519 94.549 35.5164 93.9368 35.6453C93.3568 35.742 92.809 35.9353 92.2934 36.2253C91.8101 36.5153 91.3912 36.902 91.0368 37.3853C90.7145 37.8686 90.5373 38.497 90.5051 39.2703V39.4153C90.5695 40.5431 90.8434 41.3647 91.3268 41.8803C91.8423 42.3958 92.3418 42.6536 92.8251 42.6536C93.5662 42.6536 94.1623 42.4925 94.6134 42.1703C95.0645 41.8158 95.4029 41.3808 95.6284 40.8653C95.854 40.3175 95.999 39.7053 96.0634 39.0286C96.1279 38.352 96.1601 37.6753 96.1601 36.9986V35.4519H95.7251Z" fill="#3F454D"/>
<path d="M103.011 46.4236V13.6053H107.506V46.4236H103.011Z" fill="#3F454D"/>
<path d="M109.949 46.4236V22.982H114.444V46.4236H109.949Z" fill="#3F454D"/>
<path fill-rule="evenodd" clip-rule="evenodd" d="M68.073 31.3322V31.6649C68.1071 31.8472 68.1213 32.0314 68.1213 32.2133V33.0037C68.1531 33.5541 68.1691 34.1185 68.1696 34.6968C68.2017 35.2833 68.218 35.8412 68.218 36.37C68.218 37.9244 68.1191 39.3758 67.918 40.7214C67.7409 42.1262 67.3308 43.3831 66.6619 44.4649C66.006 45.5788 65.0662 46.4505 63.8778 47.0818C62.6363 47.7414 61.0736 48.029 59.2656 48.029C58.3557 48.029 57.4432 47.8581 56.5334 47.5305C55.5825 47.1882 54.7306 46.656 53.9825 45.9453C53.2224 45.2232 52.6147 44.3289 52.1471 43.286C51.657 42.1927 51.4117 40.9342 51.3768 39.5385L51.3765 39.525V39.2216C51.3765 37.3658 51.7176 35.7614 52.5024 34.5021C53.2224 33.316 54.125 32.3665 55.2192 31.6874C55.4122 31.5675 55.6084 31.455 55.8077 31.3498L51.1104 27.1434L51.587 26.3775C52.5643 24.8068 53.7705 23.5551 55.2133 22.6527C56.6473 21.7439 58.0851 21.2309 59.5072 21.2309C62.066 21.2309 64.1867 22.0407 65.719 23.7615C67.2902 25.4894 68.006 28.0847 68.0728 31.3211L68.073 31.3322ZM64.9206 24.48C66.2417 25.93 66.9345 28.2177 66.9989 31.3433V31.7783C67.0311 31.9072 67.0472 32.0522 67.0472 32.2133V33.035C67.0795 33.5827 67.0956 34.1466 67.0956 34.7266C67.1278 35.3066 67.1439 35.8544 67.1439 36.37C67.1439 37.8844 67.0472 39.2861 66.8539 40.575C66.6928 41.8638 66.3222 42.9755 65.7422 43.91C65.1945 44.8444 64.405 45.5855 63.3739 46.1333C62.3428 46.6811 60.9734 46.955 59.2656 46.955C58.4922 46.955 57.7028 46.81 56.8972 46.52C56.0917 46.23 55.3667 45.7788 54.7222 45.1666C54.0778 44.5544 53.5461 43.7811 53.1272 42.8466C52.7084 41.9122 52.4828 40.8005 52.4506 39.5116V39.2216C52.4506 37.4816 52.7728 36.0961 53.4172 35.065C54.0617 34.0016 54.8511 33.18 55.7856 32.6C56.72 32.02 57.735 31.6333 58.8306 31.44C59.767 31.2747 60.6327 31.1801 61.4279 31.1561C61.5631 31.152 61.6962 31.15 61.8272 31.15H62.5039C62.4795 30.7672 62.4417 30.4092 62.3905 30.0759C62.2392 29.0902 61.9708 28.3204 61.5856 27.7666C61.07 26.9933 60.3934 26.6066 59.5556 26.6066C59.0078 26.6066 58.3956 26.8966 57.7189 27.4766C57.2763 27.875 56.826 28.3722 56.3682 28.9682C56.1595 29.2399 55.9491 29.5322 55.7372 29.845L52.4989 26.945C53.4011 25.495 54.4967 24.3672 55.7856 23.5616C57.1067 22.7238 58.3472 22.305 59.5072 22.305C61.8272 22.305 63.6317 23.03 64.9206 24.48ZM58.4277 28.2838C57.8703 28.7874 57.2681 29.5002 56.6265 30.4473L56.1229 31.1908C56.9175 30.8081 57.7588 30.5384 58.6439 30.3822C59.5864 30.2159 60.4739 30.1156 61.3039 30.0855C61.1666 29.2873 60.9517 28.7362 60.7039 28.38L60.6978 28.3713L60.6919 28.3624C60.3499 27.8494 59.9903 27.6807 59.5556 27.6807C59.3834 27.6807 59.0181 27.7801 58.4277 28.2838ZM60.5763 36.7007L60.5538 36.7044C60.1025 36.7796 59.6775 36.9285 59.2739 37.1536C58.9324 37.3608 58.6272 37.6384 58.3588 37.9993C58.1841 38.2702 58.0479 38.6794 58.0197 39.2934V39.3832C58.0798 40.3667 58.3117 40.8824 58.5405 41.1342C58.9472 41.5365 59.1846 41.5792 59.2656 41.5792C59.8408 41.5792 60.1932 41.4576 60.4113 41.3087C60.712 41.0675 60.9308 40.7824 61.0803 40.4448C61.2576 40.0108 61.3793 39.5078 61.4347 38.9265C61.4959 38.2835 61.5265 37.6408 61.5265 36.9983V36.5551C61.2249 36.5825 60.9156 36.6292 60.5985 36.696L60.5763 36.7007ZM61.5265 35.4772C61.1499 35.507 60.7669 35.5629 60.3772 35.645C59.7972 35.7416 59.2495 35.935 58.7339 36.225C58.2506 36.515 57.8317 36.9016 57.4772 37.385C57.155 37.8683 56.9778 38.4966 56.9456 39.27V39.415C57.01 40.5427 57.2839 41.3644 57.7672 41.88C58.2828 42.3955 58.7822 42.6533 59.2656 42.6533C60.0067 42.6533 60.6028 42.4922 61.0539 42.17C61.505 41.8155 61.8434 41.3805 62.0689 40.865C62.2945 40.3172 62.4395 39.705 62.5039 39.0283C62.5684 38.3516 62.6006 37.675 62.6006 36.9983V35.4516H62.1656C61.9547 35.4516 61.7417 35.4601 61.5265 35.4772ZM68.2328 32.5052V32.5033C68.2328 30.6576 68.4336 29.0179 68.8581 27.603C69.2778 26.2039 69.887 25.0007 70.7102 24.0278C71.5201 23.0707 72.4785 22.3501 73.5845 21.8925L73.5904 21.8901L73.5963 21.8877C74.7 21.4462 75.8839 21.2309 77.1368 21.2309C78.7799 21.2309 80.2183 21.5607 81.3536 22.3269C82.3954 22.999 83.2009 23.8728 83.7419 24.9452C84.291 25.9401 84.631 27.047 84.7747 28.2515C84.9413 29.356 85.0259 30.4192 85.0259 31.44V37.6624C85.1732 36.4581 85.5064 35.3935 86.0621 34.5019C86.7821 33.3159 87.6846 32.3665 88.7787 31.6874C88.9718 31.5675 89.168 31.455 89.3672 31.3498L84.67 27.1434L85.1465 26.3775C86.1238 24.8069 87.33 23.5552 88.7728 22.6527C90.2068 21.7439 91.6446 21.2309 93.0668 21.2309C95.6256 21.2309 97.7464 22.0407 99.2786 23.7616C100.85 25.4895 101.566 28.0847 101.632 31.3211L101.633 31.3322V31.6649C101.667 31.8472 101.681 32.0313 101.681 32.2133V33.0037C101.713 33.5541 101.729 34.1185 101.729 34.6968C101.761 35.2833 101.778 35.8412 101.778 36.37C101.778 37.9244 101.679 39.3758 101.478 40.7214C101.3 42.1263 100.89 43.3831 100.221 44.465C99.5655 45.5788 98.6258 46.4505 97.4374 47.0818C96.1959 47.7414 94.6332 48.029 92.8251 48.029C91.9152 48.029 91.0028 47.8581 90.093 47.5305C89.142 47.1882 88.2902 46.656 87.542 45.9453C86.7819 45.2232 86.1742 44.3289 85.7067 43.286C85.364 42.5214 85.141 41.6761 85.0259 40.7596V47.4974H78.3828V31.44C78.3828 30.9691 78.3533 30.4794 78.2934 29.9704L78.2896 29.9376L78.2877 29.9045C78.2612 29.4276 78.1699 29.0121 78.0246 28.6489L78.0129 28.6195L78.0029 28.5896C77.8902 28.2515 77.7399 28.0338 77.5783 27.8883L77.5363 27.8505L77.4985 27.8085C77.4368 27.74 77.3546 27.6807 77.1368 27.6807C76.7544 27.6807 76.4731 27.7709 76.2505 27.9164C76.0248 28.0639 75.7961 28.3102 75.5898 28.7191C75.1688 29.6202 74.9242 30.8774 74.9242 32.5516V47.4974H68.2848L68.2328 32.5052ZM74.6235 28.25C75.1713 27.1544 76.0091 26.6066 77.1368 26.6066C77.6202 26.6066 78.0068 26.7677 78.2968 27.09C78.6191 27.38 78.8607 27.7666 79.0218 28.25C79.2152 28.7333 79.3279 29.265 79.3602 29.845C79.4246 30.3927 79.4568 30.9244 79.4568 31.44V46.4233H83.9518V31.44C83.9518 30.4733 83.8713 29.4583 83.7102 28.395C83.5813 27.2994 83.2752 26.3166 82.7918 25.4466C82.3407 24.5444 81.664 23.8033 80.7618 23.2233C79.8596 22.6111 78.6513 22.305 77.1368 22.305C76.0091 22.305 74.9618 22.4983 73.9952 22.885C73.0607 23.2716 72.2391 23.8838 71.5302 24.7216C70.8213 25.5594 70.2735 26.6227 69.8868 27.9116C69.5002 29.2005 69.3068 30.7311 69.3068 32.5033L69.3552 46.4233H73.8502V32.5516C73.8502 30.7794 74.1079 29.3455 74.6235 28.25ZM99.3018 43.91C99.8818 42.9755 100.252 41.8638 100.413 40.575C100.607 39.2861 100.703 37.8844 100.703 36.37C100.703 35.8544 100.687 35.3066 100.655 34.7266C100.655 34.1466 100.639 33.5827 100.607 33.035V32.2133C100.607 32.0522 100.591 31.9072 100.558 31.7783V31.3433C100.494 28.2177 99.8013 25.93 98.4801 24.48C97.1913 23.03 95.3868 22.305 93.0668 22.305C91.9068 22.305 90.6663 22.7238 89.3451 23.5616C88.0563 24.3672 86.9607 25.495 86.0585 26.945L89.2968 29.845C89.5087 29.5322 89.719 29.2399 89.9278 28.9682C90.3856 28.3722 90.8358 27.875 91.2785 27.4766C91.9551 26.8966 92.5674 26.6066 93.1152 26.6066C93.9529 26.6066 94.6296 26.9933 95.1451 27.7666C95.5304 28.3204 95.7987 29.0902 95.9501 30.0759C96.0012 30.4092 96.0391 30.7672 96.0635 31.15H95.3868C95.2557 31.15 95.1226 31.152 94.9875 31.1561C94.1923 31.1801 93.3265 31.2747 92.3901 31.44C91.2946 31.6333 90.2796 32.02 89.3451 32.6C88.4107 33.18 87.6213 34.0016 86.9768 35.065C86.3324 36.0961 86.0102 37.4816 86.0102 39.2216V39.5116C86.0424 40.8005 86.2679 41.9122 86.6868 42.8466C87.1057 43.7811 87.6374 44.5544 88.2818 45.1666C88.9263 45.7788 89.6513 46.23 90.4568 46.52C91.2624 46.81 92.0518 46.955 92.8251 46.955C94.5329 46.955 95.9024 46.6811 96.9335 46.1333C97.9646 45.5855 98.754 44.8444 99.3018 43.91ZM94.8635 30.0855C94.7261 29.2873 94.5112 28.7362 94.2634 28.38L94.2574 28.3713L94.2515 28.3624C93.9095 27.8494 93.5499 27.6807 93.1152 27.6807C92.943 27.6807 92.5776 27.7801 91.9873 28.2838C91.4298 28.7874 90.8277 29.5002 90.1861 30.4473L89.6824 31.1908C90.477 30.8081 91.3183 30.5384 92.2035 30.3822C93.146 30.2159 94.0334 30.1156 94.8635 30.0855ZM94.1358 36.7007L94.1134 36.7044C93.6621 36.7796 93.2371 36.9285 92.8335 37.1536C92.4919 37.3608 92.1868 37.6384 91.9184 37.9993C91.7437 38.2702 91.6075 38.6793 91.5792 39.2934V39.3832C91.6394 40.3667 91.8713 40.8824 92.1001 41.1342C92.5068 41.5365 92.7442 41.5792 92.8251 41.5792C93.4004 41.5792 93.7528 41.4576 93.9709 41.3087C94.2716 41.0675 94.4903 40.7824 94.6399 40.4448C94.8172 40.0108 94.9389 39.5078 94.9942 38.9265C95.0555 38.2835 95.0861 37.6408 95.0861 36.9983V36.5551C94.7844 36.5825 94.4752 36.6292 94.1581 36.696L94.1358 36.7007ZM95.0861 35.4772C94.7095 35.507 94.3264 35.5629 93.9368 35.645C93.3568 35.7416 92.809 35.935 92.2935 36.225C91.8102 36.515 91.3913 36.9016 91.0368 37.385C90.7146 37.8683 90.5374 38.4966 90.5051 39.27V39.415C90.5696 40.5427 90.8435 41.3644 91.3268 41.88C91.8424 42.3955 92.3418 42.6533 92.8251 42.6533C93.5663 42.6533 94.1624 42.4922 94.6135 42.17C95.0646 41.8155 95.4029 41.3805 95.6285 40.865C95.854 40.3172 95.999 39.705 96.0635 39.0283C96.1279 38.3516 96.1601 37.675 96.1601 36.9983V35.4516H95.7252C95.5143 35.4516 95.3012 35.4601 95.0861 35.4772ZM101.937 47.4974V12.5309H108.58V47.4974H101.937ZM108.875 47.4974V21.9076H115.518V47.4974H108.875ZM103.011 13.605H107.506V46.4233H103.011V13.605ZM109.949 46.4233H114.444V22.9816H109.949V46.4233Z" fill="white"/>
<path d="M112.124 21.29C111.383 21.29 110.722 21.0483 110.142 20.565C109.594 20.0494 109.32 19.3244 109.32 18.39C109.32 17.5522 109.594 16.8916 110.142 16.4083C110.722 15.8928 111.383 15.635 112.124 15.635C112.833 15.635 113.461 15.9089 114.009 16.4566C114.589 16.9722 114.879 17.6166 114.879 18.39C114.879 19.3244 114.589 20.0494 114.009 20.565C113.429 21.0483 112.8 21.29 112.124 21.29Z" fill="url(#paint30_radial_1_6)"/>
<path d="M53.5568 55.8517V52.5657H51.8627V55.8517H50.9783V49.2612H51.8627V51.728H53.5568V49.2612H54.4318V55.8517H53.5568Z" fill="url(#paint31_radial_1_6)"/>
<path d="M63.9346 52.5564C63.9346 53.0591 63.888 53.5214 63.795 53.9434C63.7081 54.3592 63.5777 54.7191 63.404 55.0232C63.2302 55.3211 63.0161 55.5569 62.7617 55.7307C62.5135 55.8982 62.2311 55.982 61.9146 55.982C61.5919 55.982 61.3033 55.8982 61.0489 55.7307C60.8007 55.5569 60.5897 55.318 60.4159 55.0139C60.2422 54.7098 60.1087 54.3499 60.0156 53.9341C59.9288 53.5121 59.8853 53.0529 59.8853 52.5564C59.8853 52.0538 59.9288 51.5945 60.0156 51.1788C60.1025 50.7568 60.2297 50.3968 60.3973 50.099C60.5711 49.7949 60.7821 49.5591 61.0303 49.3915C61.2847 49.2177 61.5795 49.1309 61.9146 49.1309C62.2311 49.1309 62.5135 49.2177 62.7617 49.3915C63.0161 49.5591 63.2302 49.7949 63.404 50.099C63.5777 50.3968 63.7081 50.7568 63.795 51.1788C63.888 51.5945 63.9346 52.0538 63.9346 52.5564ZM63.0689 52.5564C63.0689 52.1965 63.0441 51.8583 62.9944 51.5418C62.9448 51.2253 62.8703 50.9523 62.771 50.7226C62.6779 50.4868 62.56 50.3037 62.4173 50.1734C62.2745 50.0369 62.107 49.9686 61.9146 49.9686C61.716 49.9686 61.5423 50.0369 61.3933 50.1734C61.2506 50.3037 61.1296 50.4868 61.0303 50.7226C60.9372 50.9523 60.8658 51.2253 60.8162 51.5418C60.7727 51.8583 60.751 52.1965 60.751 52.5564V52.603C60.751 52.9505 60.7758 53.2794 60.8255 53.5897C60.8751 53.8938 60.9465 54.1637 61.0396 54.3996C61.1389 54.6292 61.2599 54.8122 61.4026 54.9488C61.5516 55.0791 61.7222 55.1442 61.9146 55.1442C62.107 55.1442 62.2745 55.076 62.4173 54.9395C62.5662 54.8029 62.6872 54.6199 62.7803 54.3902C62.8796 54.1544 62.951 53.8814 62.9944 53.5711C63.0441 53.2546 63.0689 52.9164 63.0689 52.5564Z" fill="url(#paint32_radial_1_6)"/>
<path d="M69.386 55.8517V49.2612H70.2703V55.0046H71.9273V55.8517H69.386Z" fill="url(#paint33_radial_1_6)"/>
<path d="M77.1851 55.8517V49.2612H78.0694V55.8517H77.1851Z" fill="url(#paint34_radial_1_6)"/>
<path d="M87.0202 52.5564C87.0202 53.115 86.955 53.6021 86.8247 54.0179C86.7006 54.4337 86.5268 54.7781 86.3034 55.0512C86.0862 55.318 85.8286 55.5197 85.5308 55.6562C85.2391 55.7865 84.9257 55.8517 84.5906 55.8517H83.548V49.2612H84.5999C84.935 49.2612 85.2484 49.3294 85.5401 49.466C85.838 49.5963 86.0955 49.798 86.3127 50.071C86.5299 50.3441 86.7006 50.6885 86.8247 51.1043C86.955 51.5139 87.0202 51.9979 87.0202 52.5564ZM84.4324 50.099V55.0139H84.5627C84.7861 55.0139 84.994 54.9643 85.1864 54.865C85.3787 54.7657 85.5463 54.6168 85.689 54.4182C85.8318 54.2134 85.9435 53.9589 86.0241 53.6549C86.1048 53.3446 86.1451 52.9784 86.1451 52.5564V52.5285C86.1389 52.1251 86.0924 51.7714 86.0055 51.4673C85.9248 51.1632 85.8131 50.9119 85.6704 50.7133C85.5277 50.5085 85.3601 50.3565 85.1677 50.2572C84.9816 50.1517 84.7799 50.099 84.5627 50.099H84.4324Z" fill="url(#paint35_radial_1_6)"/>
<path d="M94.2533 49.2053C94.6009 49.2053 94.8894 49.2674 95.119 49.3915C95.3549 49.5094 95.5441 49.6583 95.6869 49.8383C95.8296 50.0183 95.9289 50.2169 95.9847 50.4341C96.0468 50.6513 96.0778 50.8561 96.0778 51.0484V55.861H95.1935V52.5657H93.3039V55.861H92.4195V51.0484C92.4195 50.8561 92.4537 50.6513 92.5219 50.4341C92.5902 50.2169 92.6957 50.0183 92.8384 49.8383C92.9874 49.6583 93.1766 49.5094 93.4062 49.3915C93.6421 49.2674 93.9244 49.2053 94.2533 49.2053ZM93.3039 51.7187H95.1935V51.0484C95.1935 50.9429 95.1749 50.8343 95.1377 50.7226C95.1004 50.6047 95.0415 50.4961 94.9608 50.3968C94.8863 50.2975 94.7901 50.2169 94.6722 50.1548C94.5543 50.0865 94.4147 50.0493 94.2533 50.0431C94.092 50.0493 93.9524 50.0865 93.8344 50.1548C93.7165 50.2169 93.6172 50.2975 93.5366 50.3968C93.4621 50.4899 93.4031 50.5954 93.3597 50.7133C93.3225 50.8312 93.3039 50.9429 93.3039 51.0484V51.7187Z" fill="url(#paint36_radial_1_6)"/>
<path d="M103.795 52.3144V55.8517H102.929V52.3144L101.17 49.2612H102.157L103.367 51.3277L104.586 49.2612H105.582L103.795 52.3144Z" fill="url(#paint37_radial_1_6)"/>
<path d="M114.201 54.0272C114.201 54.4058 114.151 54.7223 114.052 54.9767C113.953 55.2249 113.819 55.4235 113.652 55.5724C113.49 55.7214 113.304 55.8269 113.093 55.8889C112.882 55.951 112.665 55.982 112.442 55.982H112.414C112.047 55.982 111.712 55.8827 111.408 55.6841C111.104 55.4856 110.834 55.2001 110.598 54.8277L111.325 54.3344C111.486 54.6074 111.663 54.8122 111.855 54.9488C112.054 55.0791 112.237 55.1442 112.404 55.1442C112.516 55.1442 112.625 55.1287 112.73 55.0977C112.842 55.0605 112.941 55.0015 113.028 54.9208C113.115 54.834 113.183 54.7191 113.233 54.5764C113.289 54.4275 113.317 54.2444 113.317 54.0272C113.317 53.6921 113.211 53.4004 113 53.1522C112.789 52.904 112.497 52.6743 112.125 52.4634C111.939 52.3579 111.765 52.2524 111.604 52.1469C111.442 52.0352 111.3 51.9141 111.176 51.7838C111.058 51.6473 110.965 51.4922 110.896 51.3184C110.828 51.1446 110.794 50.9367 110.794 50.6947C110.794 50.4403 110.834 50.2169 110.915 50.0245C110.996 49.8259 111.104 49.6615 111.241 49.5311C111.377 49.4008 111.532 49.3015 111.706 49.2333C111.886 49.165 112.072 49.1309 112.265 49.1309C112.476 49.1309 112.659 49.1557 112.814 49.2053C112.975 49.255 113.115 49.3232 113.233 49.4101C113.357 49.497 113.462 49.6025 113.549 49.7266C113.642 49.8445 113.726 49.9748 113.801 50.1176L113.205 50.6947C113.106 50.5396 113.016 50.4155 112.935 50.3224C112.854 50.2293 112.777 50.1579 112.702 50.1083C112.634 50.0524 112.566 50.0152 112.497 49.9966C112.429 49.9779 112.358 49.9686 112.283 49.9686C112.11 49.9686 111.961 50.0338 111.836 50.1641C111.719 50.2944 111.663 50.4744 111.669 50.704C111.669 50.9026 111.731 51.0609 111.855 51.1788C111.979 51.2967 112.122 51.4115 112.283 51.5232L112.367 51.579C112.392 51.5914 112.411 51.6039 112.423 51.6163C112.442 51.6287 112.457 51.6411 112.469 51.6535C112.482 51.6659 112.497 51.6783 112.516 51.6907C112.535 51.6969 112.55 51.7063 112.563 51.7187C112.786 51.8614 112.997 52.0103 113.196 52.1655C113.394 52.3206 113.568 52.4882 113.717 52.6681C113.866 52.8481 113.984 53.0498 114.071 53.2732C114.157 53.4966 114.201 53.7479 114.201 54.0272Z" fill="url(#paint38_radial_1_6)"/>
<defs>
<radialGradient id="paint0_radial_1_6" cx="0" cy="0" r="1" gradientUnits="userSpaceOnUse" gradientTransform="translate(30.9887 -14.1296) rotate(94.1513) scale(39.9245)">
<stop stop-color="#FF8656"/>
<stop offset="1" stop-color="#3F454D" stop-opacity="0.96"/>
</radialGradient>
<radialGradient id="paint1_radial_1_6" cx="0" cy="0" r="1" gradientUnits="userSpaceOnUse" gradientTransform="translate(30.9887 -14.1296) rotate(94.1513) scale(39.9245)">
<stop stop-color="#FF8656"/>
<stop offset="1" stop-color="#3F454D" stop-opacity="0.96"/>
</radialGradient>
<linearGradient id="paint2_linear_1_6" x1="15.8837" y1="22.0717" x2="15.8837" y2="-4.33512" gradientUnits="userSpaceOnUse">
<stop stop-color="white" stop-opacity="0.06"/>
<stop offset="1" stop-color="white" stop-opacity="0"/>
</linearGradient>
<linearGradient id="paint3_linear_1_6" x1="20.3734" y1="21.9283" x2="20.3734" y2="-4.33533" gradientUnits="userSpaceOnUse">
<stop stop-color="white" stop-opacity="0.06"/>
<stop offset="1" stop-color="white" stop-opacity="0"/>
</linearGradient>
<linearGradient id="paint4_linear_1_6" x1="24.74" y1="21.8797" x2="24.74" y2="-4.33508" gradientUnits="userSpaceOnUse">
<stop stop-color="white" stop-opacity="0.06"/>
<stop offset="1" stop-color="white" stop-opacity="0"/>
</linearGradient>
<linearGradient id="paint5_linear_1_6" x1="29.0502" y1="21.84" x2="29.0502" y2="-4.33531" gradientUnits="userSpaceOnUse">
<stop stop-color="white" stop-opacity="0.06"/>
<stop offset="1" stop-color="white" stop-opacity="0"/>
</linearGradient>
<linearGradient id="paint6_linear_1_6" x1="33.3677" y1="21.7786" x2="33.3677" y2="-4.33498" gradientUnits="userSpaceOnUse">
<stop stop-color="white" stop-opacity="0.06"/>
<stop offset="1" stop-color="white" stop-opacity="0"/>
</linearGradient>
<linearGradient id="paint7_linear_1_6" x1="37.7208" y1="21.8396" x2="37.7208" y2="-4.33529" gradientUnits="userSpaceOnUse">
<stop stop-color="white" stop-opacity="0.06"/>
<stop offset="1" stop-color="white" stop-opacity="0"/>
</linearGradient>
<linearGradient id="paint8_linear_1_6" x1="42.2938" y1="21.965" x2="42.2938" y2="-4.33537" gradientUnits="userSpaceOnUse">
<stop stop-color="white" stop-opacity="0.06"/>
<stop offset="1" stop-color="white" stop-opacity="0"/>
</linearGradient>
<linearGradient id="paint9_linear_1_6" x1="42.3622" y1="22.0475" x2="42.3622" y2="5.63955" gradientUnits="userSpaceOnUse">
<stop stop-color="white" stop-opacity="0.06"/>
<stop offset="1" stop-color="white" stop-opacity="0"/>
</linearGradient>
<linearGradient id="paint10_linear_1_6" x1="15.8274" y1="22.1428" x2="15.8274" y2="5.72899" gradientUnits="userSpaceOnUse">
<stop stop-color="white" stop-opacity="0.06"/>
<stop offset="1" stop-color="white" stop-opacity="0"/>
</linearGradient>
<linearGradient id="paint11_linear_1_6" x1="42.3611" y1="22.2158" x2="42.3611" y2="14.0348" gradientUnits="userSpaceOnUse">
<stop stop-color="white" stop-opacity="0.06"/>
<stop offset="1" stop-color="white" stop-opacity="0"/>
</linearGradient>
<linearGradient id="paint12_linear_1_6" x1="15.7837" y1="22.2842" x2="15.7837" y2="14.1296" gradientUnits="userSpaceOnUse">
<stop stop-color="white" stop-opacity="0.06"/>
<stop offset="1" stop-color="white" stop-opacity="0"/>
</linearGradient>
<linearGradient id="paint13_linear_1_6" x1="42.412" y1="23.527" x2="42.412" y2="21.1134" gradientUnits="userSpaceOnUse">
<stop stop-color="white" stop-opacity="0.06"/>
<stop offset="1" stop-color="white" stop-opacity="0"/>
</linearGradient>
<linearGradient id="paint14_linear_1_6" x1="15.7339" y1="23.6425" x2="15.7339" y2="21.2183" gradientUnits="userSpaceOnUse">
<stop stop-color="white" stop-opacity="0.06"/>
<stop offset="1" stop-color="white" stop-opacity="0"/>
</linearGradient>
<linearGradient id="paint15_linear_1_6" x1="42.4009" y1="30.6107" x2="42.4009" y2="22.4777" gradientUnits="userSpaceOnUse">
<stop stop-color="white" stop-opacity="0.06"/>
<stop offset="1" stop-color="white" stop-opacity="0"/>
</linearGradient>
<linearGradient id="paint16_linear_1_6" x1="15.7752" y1="30.7209" x2="15.7752" y2="22.5882" gradientUnits="userSpaceOnUse">
<stop stop-color="white" stop-opacity="0.06"/>
<stop offset="1" stop-color="white" stop-opacity="0"/>
</linearGradient>
<linearGradient id="paint17_linear_1_6" x1="42.3642" y1="39.0059" x2="42.3642" y2="22.6165" gradientUnits="userSpaceOnUse">
<stop stop-color="white" stop-opacity="0.06"/>
<stop offset="1" stop-color="white" stop-opacity="0"/>
</linearGradient>
<linearGradient id="paint18_linear_1_6" x1="15.8425" y1="39.1165" x2="15.8425" y2="22.6878" gradientUnits="userSpaceOnUse">
<stop stop-color="white" stop-opacity="0.06"/>
<stop offset="1" stop-color="white" stop-opacity="0"/>
</linearGradient>
<linearGradient id="paint19_linear_1_6" x1="42.3067" y1="49.1239" x2="42.3067" y2="22.6876" gradientUnits="userSpaceOnUse">
<stop stop-color="white" stop-opacity="0.06"/>
<stop offset="1" stop-color="white" stop-opacity="0"/>
</linearGradient>
<linearGradient id="paint20_linear_1_6" x1="15.9023" y1="49.132" x2="15.9023" y2="22.7944" gradientUnits="userSpaceOnUse">
<stop stop-color="white" stop-opacity="0.06"/>
<stop offset="1" stop-color="white" stop-opacity="0"/>
</linearGradient>
<linearGradient id="paint21_linear_1_6" x1="20.4899" y1="49.1333" x2="20.4899" y2="22.7924" gradientUnits="userSpaceOnUse">
<stop stop-color="white" stop-opacity="0.06"/>
<stop offset="1" stop-color="white" stop-opacity="0"/>
</linearGradient>
<linearGradient id="paint22_linear_1_6" x1="37.8344" y1="49.1331" x2="37.8344" y2="22.8946" gradientUnits="userSpaceOnUse">
<stop stop-color="white" stop-opacity="0.06"/>
<stop offset="1" stop-color="white" stop-opacity="0"/>
</linearGradient>
<linearGradient id="paint23_linear_1_6" x1="33.4384" y1="49.1238" x2="33.4384" y2="22.9477" gradientUnits="userSpaceOnUse">
<stop stop-color="white" stop-opacity="0.06"/>
<stop offset="1" stop-color="white" stop-opacity="0"/>
</linearGradient>
<linearGradient id="paint24_linear_1_6" x1="24.8201" y1="49.1238" x2="24.8201" y2="23.0023" gradientUnits="userSpaceOnUse">
<stop stop-color="white" stop-opacity="0.06"/>
<stop offset="1" stop-color="white" stop-opacity="0"/>
</linearGradient>
<linearGradient id="paint25_linear_1_6" x1="29.1373" y1="49.1331" x2="29.1373" y2="23.1074" gradientUnits="userSpaceOnUse">
<stop stop-color="white" stop-opacity="0.06"/>
<stop offset="1" stop-color="white" stop-opacity="0"/>
</linearGradient>
<radialGradient id="paint26_radial_1_6" cx="0" cy="0" r="1" gradientUnits="userSpaceOnUse" gradientTransform="translate(30.9887 -14.1295) rotate(94.1513) scale(39.9245)">
<stop stop-color="#FF8656"/>
<stop offset="1" stop-color="#3F454D" stop-opacity="0.96"/>
</radialGradient>
<linearGradient id="paint27_linear_1_6" x1="37.7324" y1="5.61972" x2="32.7549" y2="32.1127" gradientUnits="userSpaceOnUse">
<stop stop-color="#646D79"/>
<stop offset="1" stop-color="#3F454D"/>
</linearGradient>
<radialGradient id="paint28_radial_1_6" cx="0" cy="0" r="1" gradientUnits="userSpaceOnUse" gradientTransform="translate(22.2416 5.51872) rotate(90) scale(9.47324)">
<stop stop-color="#FF8656"/>
<stop offset="0.546232" stop-color="#FF4800"/>
</radialGradient>
<linearGradient id="paint29_linear_1_6" x1="28.0434" y1="0" x2="28.0434" y2="56.0867" gradientUnits="userSpaceOnUse">
<stop stop-color="#FF8656"/>
<stop offset="1" stop-color="#3F454D"/>
</linearGradient>
<radialGradient id="paint30_radial_1_6" cx="0" cy="0" r="1" gradientUnits="userSpaceOnUse" gradientTransform="translate(112.089 16.7201) rotate(90) scale(5.6299 5.53366)">
<stop stop-color="#FF8656"/>
<stop offset="0.546232" stop-color="#FF4800"/>
</radialGradient>
<radialGradient id="paint31_radial_1_6" cx="0" cy="0" r="1" gradientUnits="userSpaceOnUse" gradientTransform="translate(103.43 47.5226) rotate(90) scale(11.5842 118.693)">
<stop stop-color="#FF8656"/>
<stop offset="0.546232" stop-color="#FF4800"/>
</radialGradient>
<radialGradient id="paint32_radial_1_6" cx="0" cy="0" r="1" gradientUnits="userSpaceOnUse" gradientTransform="translate(103.43 47.5226) rotate(90) scale(11.5842 118.693)">
<stop stop-color="#FF8656"/>
<stop offset="0.546232" stop-color="#FF4800"/>
</radialGradient>
<radialGradient id="paint33_radial_1_6" cx="0" cy="0" r="1" gradientUnits="userSpaceOnUse" gradientTransform="translate(103.43 47.5226) rotate(90) scale(11.5842 118.693)">
<stop stop-color="#FF8656"/>
<stop offset="0.546232" stop-color="#FF4800"/>
</radialGradient>
<radialGradient id="paint34_radial_1_6" cx="0" cy="0" r="1" gradientUnits="userSpaceOnUse" gradientTransform="translate(103.43 47.5226) rotate(90) scale(11.5842 118.693)">
<stop stop-color="#FF8656"/>
<stop offset="0.546232" stop-color="#FF4800"/>
</radialGradient>
<radialGradient id="paint35_radial_1_6" cx="0" cy="0" r="1" gradientUnits="userSpaceOnUse" gradientTransform="translate(103.43 47.5226) rotate(90) scale(11.5842 118.693)">
<stop stop-color="#FF8656"/>
<stop offset="0.546232" stop-color="#FF4800"/>
</radialGradient>
<radialGradient id="paint36_radial_1_6" cx="0" cy="0" r="1" gradientUnits="userSpaceOnUse" gradientTransform="translate(103.43 47.5226) rotate(90) scale(11.5842 118.693)">
<stop stop-color="#FF8656"/>
<stop offset="0.546232" stop-color="#FF4800"/>
</radialGradient>
<radialGradient id="paint37_radial_1_6" cx="0" cy="0" r="1" gradientUnits="userSpaceOnUse" gradientTransform="translate(103.43 47.5226) rotate(90) scale(11.5842 118.693)">
<stop stop-color="#FF8656"/>
<stop offset="0.546232" stop-color="#FF4800"/>
</radialGradient>
<radialGradient id="paint38_radial_1_6" cx="0" cy="0" r="1" gradientUnits="userSpaceOnUse" gradientTransform="translate(103.43 47.5226) rotate(90) scale(11.5842 118.693)">
<stop stop-color="#FF8656"/>
<stop offset="0.546232" stop-color="#FF4800"/>
</radialGradient>
</defs>
</svg>
