<svg width="143" height="22" viewBox="0 0 143 22" fill="none" xmlns="http://www.w3.org/2000/svg">
<path d="M7.98128 7.49169L8.1117 7.47273L8.16975 7.35441L11.5 0.56752L14.8303 7.35441L14.8882 7.47259L15.0185 7.49165L22.4648 8.58148L17.075 13.8621L16.9815 13.9538L17.0036 14.0828L18.2775 21.542L11.6168 18.0232L11.5 17.9615L11.3832 18.0232L4.72248 21.542L5.99643 14.0828L6.01845 13.9539L5.92509 13.8623L0.535167 8.57412L7.98128 7.49169Z" fill="url(#paint0_linear_18_60)" stroke="#FFC216" stroke-width="0.5"/>
<path d="M37.9813 7.49169L38.1117 7.47273L38.1697 7.35441L41.5 0.56752L44.8303 7.35441L44.8882 7.47259L45.0185 7.49165L52.4648 8.58148L47.075 13.8621L46.9815 13.9538L47.0036 14.0828L48.2775 21.542L41.6168 18.0232L41.5 17.9615L41.3832 18.0232L34.7225 21.542L35.9964 14.0828L36.0185 13.9539L35.9251 13.8623L30.5352 8.57412L37.9813 7.49169Z" fill="url(#paint1_linear_18_60)" stroke="#FFC216" stroke-width="0.5"/>
<path d="M67.9813 7.49169L68.1117 7.47273L68.1697 7.35441L71.5 0.56752L74.8303 7.35441L74.8882 7.47259L75.0185 7.49165L82.4648 8.58148L77.075 13.8621L76.9815 13.9538L77.0036 14.0828L78.2775 21.542L71.6168 18.0232L71.5 17.9615L71.3832 18.0232L64.7225 21.542L65.9964 14.0828L66.0185 13.9539L65.9251 13.8623L60.5352 8.57412L67.9813 7.49169Z" fill="url(#paint2_linear_18_60)" stroke="#FFC216" stroke-width="0.5"/>
<path d="M97.9813 7.49169L98.1117 7.47273L98.1697 7.35441L101.5 0.56752L104.83 7.35441L104.888 7.47259L105.018 7.49165L112.465 8.58148L107.075 13.8621L106.982 13.9538L107.004 14.0828L108.278 21.542L101.617 18.0232L101.5 17.9615L101.383 18.0232L94.7225 21.542L95.9964 14.0828L96.0185 13.9539L95.9251 13.8623L90.5352 8.57412L97.9813 7.49169Z" fill="url(#paint3_linear_18_60)" stroke="#FFC216" stroke-width="0.5"/>
<path d="M127.981 7.49169L128.112 7.47273L128.17 7.35441L131.5 0.56752L134.83 7.35441L134.888 7.47259L135.018 7.49165L142.465 8.58148L137.075 13.8621L136.982 13.9538L137.004 14.0828L138.278 21.542L131.617 18.0232L131.5 17.9615L131.383 18.0232L124.722 21.542L125.996 14.0828L126.018 13.9539L125.925 13.8623L120.535 8.57412L127.981 7.49169Z" fill="url(#paint4_linear_18_60)" stroke="#FFC216" stroke-width="0.5"/>
<defs>
<linearGradient id="paint0_linear_18_60" x1="1" y1="8.5" x2="20.5" y2="9" gradientUnits="userSpaceOnUse">
<stop stop-color="#F8B805"/>
<stop offset="1" stop-color="#FFEBB2"/>
</linearGradient>
<linearGradient id="paint1_linear_18_60" x1="31" y1="8.5" x2="50.5" y2="9" gradientUnits="userSpaceOnUse">
<stop stop-color="#F8B805"/>
<stop offset="1" stop-color="#FFEBB2"/>
</linearGradient>
<linearGradient id="paint2_linear_18_60" x1="61" y1="8.5" x2="80.5" y2="9" gradientUnits="userSpaceOnUse">
<stop stop-color="#F8B805"/>
<stop offset="1" stop-color="#FFEBB2"/>
</linearGradient>
<linearGradient id="paint3_linear_18_60" x1="91" y1="8.5" x2="110.5" y2="9" gradientUnits="userSpaceOnUse">
<stop stop-color="#F8B805"/>
<stop offset="1" stop-color="#FFEBB2"/>
</linearGradient>
<linearGradient id="paint4_linear_18_60" x1="121" y1="8.5" x2="140.5" y2="9" gradientUnits="userSpaceOnUse">
<stop stop-color="#F8B805"/>
<stop offset="1" stop-color="#FFEBB2"/>
</linearGradient>
</defs>
</svg>
