<svg width="52" height="52" viewBox="0 0 52 52" fill="none" xmlns="http://www.w3.org/2000/svg">
<path d="M0.111694 52L3.76794 38.6445C1.51326 34.7445 0.335132 30.3062 0.335132 25.7664C0.335132 11.5578 11.9031 0 26.1117 0C33.0078 0 39.4773 2.69141 44.3422 7.55625C49.207 12.4313 51.8883 18.9008 51.8883 25.7867C51.8781 39.9953 40.3203 51.5531 26.1117 51.5531H26.1015C21.7851 51.5531 17.55 50.4664 13.782 48.4148L0.111694 52ZM14.4117 43.7531L15.1937 44.2203C18.4844 46.1703 22.2523 47.2062 26.1015 47.2062H26.1117C37.9234 47.2062 47.5312 37.5984 47.5312 25.7867C47.5312 20.0688 45.307 14.6859 41.2648 10.6336C37.2226 6.58125 31.8398 4.35703 26.1219 4.35703C14.3 4.35703 4.69216 13.9648 4.69216 25.7766C4.69216 29.8188 5.81951 33.7594 7.96248 37.1719L8.47029 37.9844L6.30701 45.8859L14.4117 43.7531Z" fill="white"/>
<path d="M1.01562 51.096L4.55 38.2077C2.36641 34.4397 1.21875 30.1538 1.21875 25.7765C1.22891 12.0554 12.3906 0.903809 26.1016 0.903809C32.7539 0.903809 39.0102 3.49365 43.7023 8.196C48.4047 12.8983 50.9945 19.1444 50.9844 25.7968C50.9742 39.5077 39.8125 50.6694 26.1016 50.6694H26.0914C21.9273 50.6694 17.8344 49.6233 14.1984 47.6429L1.01562 51.096Z" fill="url(#paint0_linear_72_30)"/>
<path d="M0.111694 52L3.76794 38.6445C1.51326 34.7445 0.335132 30.3062 0.335132 25.7664C0.335132 11.5578 11.9031 0 26.1117 0C33.0078 0 39.4773 2.69141 44.3422 7.55625C49.207 12.4313 51.8883 18.9008 51.8883 25.7867C51.8781 39.9953 40.3203 51.5531 26.1117 51.5531H26.1015C21.7851 51.5531 17.55 50.4664 13.782 48.4148L0.111694 52ZM14.4117 43.7531L15.1937 44.2203C18.4844 46.1703 22.2523 47.2062 26.1015 47.2062H26.1117C37.9234 47.2062 47.5312 37.5984 47.5312 25.7867C47.5312 20.0688 45.307 14.6859 41.2648 10.6336C37.2226 6.58125 31.8398 4.35703 26.1219 4.35703C14.3 4.35703 4.69216 13.9648 4.69216 25.7766C4.69216 29.8188 5.81951 33.7594 7.96248 37.1719L8.47029 37.9844L6.30701 45.8859L14.4117 43.7531Z" fill="url(#paint1_linear_72_30)"/>
<path fill-rule="evenodd" clip-rule="evenodd" d="M19.6625 14.9907C19.175 13.9142 18.6672 13.8938 18.2102 13.8735C17.8344 13.8532 17.4078 13.8634 16.9711 13.8634C16.5445 13.8634 15.8437 14.0259 15.2547 14.6657C14.6656 15.3056 13 16.8696 13 20.0384C13 23.2071 15.3055 26.2743 15.6305 26.7009C15.9555 27.1274 20.0891 33.8407 26.6297 36.4204C32.0734 38.5634 33.1805 38.1368 34.3586 38.0353C35.5367 37.9337 38.1672 36.4814 38.7055 34.9782C39.2438 33.4751 39.2437 32.1853 39.0812 31.9212C38.9187 31.6571 38.4922 31.4946 37.8422 31.1696C37.2023 30.8446 34.0336 29.2907 33.4445 29.0774C32.8555 28.8642 32.4289 28.7524 31.9922 29.4024C31.5656 30.0423 30.3266 31.4946 29.9508 31.9212C29.575 32.3478 29.1992 32.4087 28.5594 32.0837C27.9195 31.7587 25.8375 31.0782 23.3797 28.8845C21.4602 27.1782 20.1703 25.0657 19.7945 24.4259C19.4187 23.786 19.7539 23.4306 20.0789 23.1157C20.3633 22.8314 20.7187 22.3642 21.0437 21.9884C21.3687 21.6126 21.4703 21.3485 21.6836 20.9118C21.8969 20.4853 21.7953 20.1095 21.6328 19.7845C21.4906 19.4493 20.2414 16.2704 19.6625 14.9907Z" fill="white"/>
<defs>
<linearGradient id="paint0_linear_72_30" x1="25.9998" y1="51.1002" x2="25.9998" y2="0.900356" gradientUnits="userSpaceOnUse">
<stop stop-color="#20B038"/>
<stop offset="1" stop-color="#60D66A"/>
</linearGradient>
<linearGradient id="paint1_linear_72_30" x1="26" y1="52" x2="26" y2="0" gradientUnits="userSpaceOnUse">
<stop stop-color="#F9F9F9"/>
<stop offset="1" stop-color="white"/>
</linearGradient>
</defs>
</svg>
